PathFileType        4      (X/Y/Z)      C:\Users\pc\Desktop\IMUTRC\Sujet_05\Sujet_05_velo_100.trc         
DataRate	CameraRate	NumFrames	NumMarkers	Units	OrigDataRate	OrigDataStartFrame	OrigNumFrames
60.0	60.0	4	64	mm	60.0	723	963
Frame#	Time	pHipOrigin			pRightASI			pLeftASI			pRightCSI			pLeftCSI			pRightIschialTub			pLeftIschialTub			pSacrum			pL5SpinalProcess			pL3SpinalProcess			pT12SpinalProcess			pIJ			pT4SpinalProcess			pT8SpinalProcess			pPX			pC7SpinalProcess			pTopOfHead			pRightAuricularis			pLeftAuricularis			pBackOfHead			pRightAcromion			pLeftAcromion			pRightArmLatEpicondyle			pRightArmMedEpicondyle			pLeftArmLatEpicondyle			pLeftArmMedEpicondyle			pRightUlnarStyloid			pRightRadialStyloid			pRightOlecranon			pLeftUlnarStyloid			pLeftRadialStyloid			pLeftOlecranon			pRightTopOfHand			pRightPinky			pRightBallHand			pLeftTopOfHand			pLeftPinky			pLeftBallHand			pRightGreaterTrochanter			pRightKneeLatEpicondyle			pRightKneeMedEpicondyle			pRightPatella			pLeftGreaterTrochanter			pLeftKneeLatEpicondyle			pLeftKneeMedEpicondyle			pLeftPatella			pRightTibialTub			pRightLatMalleolus			pRightMedMalleolus			pLeftTibialTub			pLeftLatMalleolus			pLeftMedMalleolus			pRightHeelFoot			pRightFirstMetatarsal			pRightFifthMetatarsal			pRightPivotFoot			pRightHeelCenter			pRightToe			pLeftHeelFoot			pLeftFirstMetatarsal			pLeftFifthMetatarsal			pLeftPivotFoot			pLeftHeelCenter			pLeftToe			
		X1	Y1	Z1	X2	Y2	Z2	X3	Y3	Z3	X4	Y4	Z4	X5	Y5	Z5	X6	Y6	Z6	X7	Y7	Z7	X8	Y8	Z8	X9	Y9	Z9	X10	Y10	Z10	X11	Y11	Z11	X12	Y12	Z12	X13	Y13	Z13	X14	Y14	Z14	X15	Y15	Z15	X16	Y16	Z16	X17	Y17	Z17	X18	Y18	Z18	X19	Y19	Z19	X20	Y20	Z20	X21	Y21	Z21	X22	Y22	Z22	X23	Y23	Z23	X24	Y24	Z24	X25	Y25	Z25	X26	Y26	Z26	X27	Y27	Z27	X28	Y28	Z28	X29	Y29	Z29	X30	Y30	Z30	X31	Y31	Z31	X32	Y32	Z32	X33	Y33	Z33	X34	Y34	Z34	X35	Y35	Z35	X36	Y36	Z36	X37	Y37	Z37	X38	Y38	Z38	X39	Y39	Z39	X40	Y40	Z40	X41	Y41	Z41	X42	Y42	Z42	X43	Y43	Z43	X44	Y44	Z44	X45	Y45	Z45	X46	Y46	Z46	X47	Y47	Z47	X48	Y48	Z48	X49	Y49	Z49	X50	Y50	Z50	X51	Y51	Z51	X52	Y52	Z52	X53	Y53	Z53	X54	Y54	Z54	X55	Y55	Z55	X56	Y56	Z56	X57	Y57	Z57	X58	Y58	Z58	X59	Y59	Z59	X60	Y60	Z60	X61	Y61	Z61	X62	Y62	Z62	X63	Y63	Z63	X64	Y64	Z64	
723	12.033	0.0	1249.9765	7.653898598672058E-14	71.41753000000001	1340.86125	121.27398000000008	51.723949999999995	1345.10556	-127.83850999999991	27.899240000000006	1403.28085	104.69289000000009	11.544509999999994	1406.78947	-102.54243999999991	-47.36646	1195.70597	54.949620000000074	-55.57212	1197.46029	-48.66804999999993	-62.30642	1269.27395	5.262940000000082	-27.10697	1369.77912	3.2822600000000857	30.67219	1475.32087	-0.5659099999999115	91.1677	1567.33743	-5.093169999999909	352.16424	1590.8226	-16.128359999999926	241.18978	1699.0807	-15.44926999999991	165.13181	1647.30017	-10.58246999999991	251.31952	1515.78326	-9.507249999999924	291.27259	1731.56379	-16.80744999999991	565.9641	1777.28912	-69.66320999999992	486.45409	1738.07173	23.824710000000078	449.89647	1748.37125	-117.53898999999991	451.14147	1797.54861	-38.48170999999992	290.36714	1665.01307	182.50517000000008	287.14147	1648.09244	-207.97100999999992	365.2933	1411.99582	171.35679000000005	351.71152	1407.8647	115.78468000000005	388.94823	1420.65421	-210.80054999999993	372.08419	1408.65697	-157.26569999999995	463.42166	1192.70666	152.68185000000005	506.82676	1217.32364	153.98343000000006	334.33816	1403.22426	144.98550000000006	491.99999	1206.68458	-235.81365999999994	530.87783	1234.58382	-250.01793999999995	358.44582	1406.28016	-177.97790999999995	546.3837	1128.64593	304.23188	506.71358	1126.32571	227.60800000000003	498.50792	1171.48513	171.46997000000005	612.53829	1170.35332	-382.89302	556.34367	1154.84745	-319.22843	531.50033	1190.83917	-261.39268	4.697030000000009	1212.00411	146.6266400000001	265.5238	962.04276	167.33885000000004	292.97032	977.49204	104.29675000000005	302.13802	998.5438	150.24844000000002	-11.148380000000008	1223.49203	-150.5313999999999	277.06832	1018.91647	-228.17390999999998	308.70255	1030.17803	-166.20703999999998	310.11731	1058.02068	-209.38577999999998	328.28295	945.74463	150.02208000000002	286.91511	571.17045	144.87232	306.15596	574.56589	88.50793000000002	307.1746	976.58659	-207.63145999999998	26.65423999999999	732.17113	-147.30571999999995	49.516909999999996	726.79501	-92.46928999999996	237.96411	502.18632	100.50517000000002	399.07797	461.55416	90.99793	383.79847	456.57418	167.73499	412.71635	453.12214	132.1394	275.71014	494.43339	107.52243000000001	489.34022	431.27811	146.06073	-50.422360000000005	712.1946	-95.69495999999995	56.47757	591.09039	-55.57211999999996	39.047619999999995	575.64112	-130.44167999999996	61.40095999999999	565.85092	-91.45064999999997	-24.61698000000001	682.76741	-95.63836999999995	110.29537	501.1111	-89.46997999999998	
724	12.05	0.0	1249.9765	7.653898598672058E-14	72.37957000000002	1339.72943	121.55693000000008	50.36576999999999	1346.57692	-127.27259999999991	28.634920000000008	1402.20562	106.05107000000008	10.299519999999994	1407.8647	-100.95789999999991	-46.74396	1195.02688	54.836440000000074	-55.91166	1197.91301	-48.66804999999993	-62.30642	1269.10418	6.055210000000081	-27.27674	1369.66594	4.640440000000085	30.10628	1475.37746	0.5093200000000885	90.26225	1567.62039	-4.697029999999909	351.03243	1592.12418	-18.788129999999924	239.54865	1699.87297	-17.486539999999913	163.83022	1647.80948	-11.374739999999909	250.58384	1516.68871	-10.412699999999923	289.51828	1732.63902	-19.636989999999912	563.41752	1779.43957	-75.32228999999991	484.98273	1740.16559	19.014490000000077	447.06693	1749.84261	-122.06624999999991	448.82124	1799.24633	-43.17873999999991	290.70669	1667.16352	180.52450000000007	282.95375	1647.86607	-210.17804999999993	364.10489	1413.07105	170.90407000000005	350.40993	1408.77015	115.33195000000006	386.11869	1420.93716	-211.98894999999993	369.59419	1409.0531	-158.34091999999995	462.74257	1194.00825	153.02139000000005	506.09108	1218.73841	154.43616000000006	333.09316	1404.12971	144.47619000000006	491.26431	1207.70321	-235.53069999999994	529.91579	1235.82882	-249.62179999999995	355.84264	1406.44993	-179.16631999999996	545.42166	1130.40025	304.96756	505.92131	1127.85366	228.28709000000003	497.82883	1172.8999	171.97929000000005	612.42511	1171.20218	-381.87439	556.11731	1155.7529	-318.37956	530.82124	1191.97098	-260.77018	2.7163600000000088	1209.96684	145.7777700000001	242.8875	939.68942	160.71773000000002	271.40924	954.23324	97.95859000000004	282.27467	973.53069	144.30641000000003	-10.52588000000001	1225.92543	-151.0972999999999	290.0276	1042.51481	-234.73842999999997	321.15251	1054.34228	-172.60178999999997	320.53001	1083.20356	-215.10143999999997	307.28778	922.25947	144.53278000000003	268.18357	547.45892	139.66597	288.27328	550.79778	83.52795000000002	319.62456	1000.3547	-213.85644999999997	39.104209999999995	756.61834	-150.92752999999993	62.476189999999995	751.18563	-96.31745999999995	218.27053	480.45547	92.58247000000001	378.53553	436.31469	84.20704	361.95444	429.58039	160.60455	391.38163	426.41131	125.29192	255.7336	471.62732	99.88268000000001	467.10006	402.41683	139.60938	-36.84058000000001	734.66113	-98.80744999999996	73.05866	615.31123	-61.68391999999997	55.119389999999996	600.54105	-136.55347999999998	78.15183	590.69426	-97.95858999999996	-10.412700000000005	705.74325	-99.48653999999996	128.29123	527.4258	-97.50585999999998	
725	12.067	0.0	1249.9765	7.653898598672058E-14	73.51139000000002	1338.25808	121.95307000000008	49.403729999999996	1347.93509	-126.59350999999991	29.710140000000006	1400.96063	107.52243000000009	9.677019999999995	1408.99651	-99.26017999999992	-46.40442	1194.46098	54.61007000000007	-56.42098	1198.53551	-48.78122999999993	-62.19324	1269.10418	6.790890000000081	-27.16356	1369.60935	6.111800000000085	30.21946	1475.32087	1.9806800000000886	90.14907	1567.67698	-3.734989999999909	350.74947	1592.69009	-20.712209999999924	239.03933	1700.21252	-18.39198999999991	163.49068	1647.97925	-11.261559999999909	250.58384	1517.08485	-10.922009999999924	288.95237	1733.09174	-21.278119999999912	562.45547	1779.49616	-79.50999999999992	484.64319	1740.6749	15.562460000000076	445.70875	1749.8992	-125.23532999999992	448.14216	1799.58588	-46.574189999999916	292.17805	1667.8992	179.5058600000001	280.12422	1647.01721	-211.1966799999999	363.48239	1412.90128	171.13043000000005	349.90061	1408.54379	115.55831000000006	384.08143	1420.54103	-212.72462999999993	368.23602	1408.99651	-158.85023999999996	462.68598	1194.06484	153.64389000000006	505.92131	1218.90818	155.28502000000006	332.58384	1403.90335	144.58937000000006	490.81158	1207.7598	-234.34229999999994	529.40647	1236.05518	-248.54657999999995	354.14492	1406.16698	-179.84540999999993	545.42166	1130.51343	305.59005	505.9779	1127.96685	228.90959000000004	497.77224	1173.01308	172.65838000000005	612.59488	1170.69286	-380.06348	556.11731	1155.52654	-316.62525	530.53829	1192.02758	-259.412	1.1884100000000088	1208.49548	145.1552800000001	221.83574	921.80674	154.94548000000006	251.03657	935.21875	92.24292000000004	263.42995	953.04483	138.76052000000004	-9.56384000000001	1228.86815	-151.7197999999999	301.6287	1066.33952	-239.54864999999998	331.84816	1078.22358	-177.01586999999998	329.58453	1108.21667	-218.66665999999998	286.63215	903.24497	140.23188000000002	245.26431	528.67079	135.8178	266.65562	531.6701	80.18909000000001	331.39544	1024.57554	-218.04415999999998	56.02483999999999	775.2367	-154.20979999999994	79.5666	770.36989	-99.59971999999996	194.10628	464.15734	85.16908000000001	352.84333	414.52725	79.28364	334.16838	406.03864	155.00207	364.27466	402.86956	120.31194	231.00344	453.68805	93.14838000000002	438.63491	375.87577	135.47826	-18.505180000000006	748.46927	-101.63698999999995	97.61905	633.81641	-69.09730999999995	79.45340999999999	620.23463	-144.19322999999997	103.44789	610.44443	-106.10765999999995	9.280879999999993	720.96617	-103.39129999999996	156.58661	550.17528	-108.03173999999999	
726	12.083	0.0	1249.9765	7.653898598672058E-14	74.64320000000001	1336.67353	122.40579000000008	48.837819999999994	1349.18009	-125.85782999999992	30.955140000000007	1399.65904	108.93720000000009	9.507249999999996	1410.07174	-97.56244999999991	-46.17805	1194.00825	54.27053000000007	-56.9303	1199.2146	-48.95099999999993	-62.08005	1269.21736	7.413390000000081	-26.71083	1369.60935	7.526570000000086	30.72878	1475.26428	3.5086300000000885	90.71497	1567.50721	-2.3768099999999097	351.08902	1592.57691	-22.070389999999925	239.37888	1700.04275	-18.61835999999991	163.94341	1647.80948	-10.58246999999991	251.09316	1516.91508	-11.204969999999923	289.29192	1732.97856	-22.07038999999991	562.62524	1778.13798	-82.67908999999992	485.26569	1740.16559	13.129050000000076	445.4258	1748.93715	-127.44236999999991	448.65147	1798.96338	-49.007589999999915	294.38509	1667.67284	179.0531400000001	278.42649	1645.77222	-211.5362299999999	363.4258	1411.82605	171.75293000000005	349.90061	1407.52515	116.23740000000005	382.66666	1419.63557	-213.12076999999994	367.67011	1408.43061	-158.90682999999996	463.08211	1193.27257	154.43616000000006	506.26086	1218.1725	156.30365000000006	332.58384	1402.82812	145.09869000000006	490.75499	1207.13731	-232.70116999999993	529.2367	1235.48927	-246.96203999999994	353.12629	1405.4313	-180.07176999999993	546.10075	1129.4382	306.26914	506.6004	1127.0048	229.58868000000004	498.22497	1172.22081	173.50724000000005	613.10419	1169.2215	-377.68667	556.40026	1154.45132	-314.36162	530.53829	1191.34849	-257.48792	-0.056589999999991134	1207.47685	144.8157300000001	202.36852	907.54587	150.47481000000005	231.85231	919.65629	87.60248000000004	245.71704	936.29397	134.17667000000003	-8.432020000000009	1231.98065	-152.2857099999999	311.81504	1089.82468	-242.83090999999996	341.01586	1101.42578	-179.73221999999998	337.28087	1132.49411	-220.47756999999996	266.37266	887.62593	136.83644000000004	218.49689	513.78743	132.25258000000002	241.35955	516.27742	77.18978000000001	342.54381	1048.6832	-220.70392999999999	76.79364999999999	788.98825	-157.60523999999995	100.3354	785.0269	-102.93857999999996	165.86749	452.44305	77.86887000000002	322.39751	395.90889	74.81297000000002	301.06279	385.77915	149.62595	332.07453	382.44029	115.72809000000001	202.02898	440.10627	86.52726000000001	404.68046	351.48515	132.08281	4.414079999999994	755.48652	-104.86265999999996	128.74396	648.24705	-77.86886999999997	110.57832999999998	636.08004	-153.13456999999997	135.70462	626.68597	-115.78467999999997	34.067629999999994	730.13387	-107.91855999999996	193.03105	570.32159	-120.48170999999999	
